<svg width="167" height="110" viewBox="0 0 167 110" fill="none" xmlns="http://www.w3.org/2000/svg">
<rect width="167" height="110" rx="39" fill="#D9D9D9"/>
<path d="M135.137 21.2929L95.468 11.8083C88.9361 10.2546 81.9728 10.9576 76.0151 13.7721L58.5646 22.1285L33.1518 26.3068C31.2633 26.3067 29.4514 26.9613 28.1115 28.1276C26.7716 29.294 26.0126 30.8774 26 32.5323V45.0671C26 46.7293 26.7535 48.3234 28.0947 49.4988C29.4359 50.6741 31.255 51.3344 33.1518 51.3344H37.9197C38.3883 53.7578 39.8208 55.9575 41.9634 57.5436C44.1059 59.1298 46.8201 60 49.6248 60C52.4296 60 55.1438 59.1298 57.2863 57.5436C59.4289 55.9575 60.8614 53.7578 61.33 51.3344H104.67C105.139 53.7578 106.571 55.9575 108.714 57.5436C110.856 59.1298 113.57 60 116.375 60C119.18 60 121.894 59.1298 124.037 57.5436C126.179 55.9575 127.612 53.7578 128.08 51.3344H132.848C134.745 51.3344 136.564 50.6741 137.905 49.4988C139.246 48.3234 140 46.7293 140 45.0671V27.1424C139.979 25.8464 139.5 24.5879 138.629 23.5403C137.758 22.4927 136.538 21.7075 135.137 21.2929ZM111.822 20.0812V22.0867H108.484L106.625 18.7859L111.822 20.0812ZM78.4467 17.4907C83.0334 15.3458 88.3491 14.7227 93.4178 15.7358H94.3714H95.1819L100.617 17.0311L103.287 21.7525H68.9109L78.4467 17.4907ZM49.8394 55.8051C48.4249 55.8051 47.0422 55.4376 45.8661 54.7489C44.6899 54.0602 43.7733 53.0814 43.232 51.9362C42.6907 50.791 42.549 49.5308 42.825 48.3151C43.101 47.0993 43.7821 45.9826 44.7823 45.1061C45.7825 44.2296 47.0568 43.6327 48.4441 43.3909C49.8315 43.149 51.2695 43.2731 52.5763 43.7475C53.8831 44.2219 55.0001 45.0252 55.7859 46.0558C56.5718 47.0865 56.9912 48.2982 56.9912 49.5378C56.9912 51.2 56.2377 52.7941 54.8965 53.9695C53.5553 55.1448 51.7362 55.8051 49.8394 55.8051ZM116.59 55.8051C115.175 55.8051 113.792 55.4376 112.616 54.7489C111.44 54.0602 110.524 53.0814 109.982 51.9362C109.441 50.791 109.299 49.5308 109.575 48.3151C109.851 47.0993 110.532 45.9826 111.533 45.1061C112.533 44.2296 113.807 43.6327 115.194 43.3909C116.582 43.149 118.02 43.2731 119.327 43.7475C120.633 44.2219 121.75 45.0252 122.536 46.0558C123.322 47.0865 123.742 48.2982 123.742 49.5378C123.742 51.2 122.988 52.7941 121.647 53.9695C120.306 55.1448 118.486 55.8051 116.59 55.8051ZM135.661 34.6215H133.277C132.645 34.6215 132.039 34.8416 131.592 35.2334C131.145 35.6251 130.893 36.1565 130.893 36.7106C130.893 37.2647 131.145 37.796 131.592 38.1878C132.039 38.5796 132.645 38.7997 133.277 38.7997H135.661V45.0671C135.661 45.6211 135.41 46.1525 134.963 46.5443C134.516 46.9361 133.91 47.1562 133.277 47.1562H128.176C127.567 44.8688 126.094 42.8291 123.994 41.3689C121.895 39.9087 119.294 39.114 116.614 39.114C113.933 39.114 111.332 39.9087 109.233 41.3689C107.134 42.8291 105.66 44.8688 105.051 47.1562H61.4253C60.817 44.8688 59.3433 42.8291 57.244 41.3689C55.1447 39.9087 52.5434 39.114 49.8632 39.114C47.1831 39.114 44.5818 39.9087 42.4825 41.3689C40.3832 42.8291 38.9095 44.8688 38.3011 47.1562H33.1518C32.5196 47.1562 31.9132 46.9361 31.4661 46.5443C31.019 46.1525 30.7679 45.6211 30.7679 45.0671V38.7997H33.1518C33.7841 38.7997 34.3904 38.5796 34.8375 38.1878C35.2846 37.796 35.5358 37.2647 35.5358 36.7106C35.5358 36.1565 35.2846 35.6251 34.8375 35.2334C34.3904 34.8416 33.7841 34.6215 33.1518 34.6215H30.7679V32.5323C30.7856 32.2283 30.8734 31.9306 31.026 31.657C31.1785 31.3835 31.3926 31.1399 31.6555 30.9408C31.9183 30.7417 32.2244 30.5913 32.5553 30.4986C32.8862 30.4059 33.2351 30.3729 33.5809 30.4014L59.3752 26.265H114.206C114.838 26.265 115.444 26.0449 115.891 25.6531C116.339 25.2613 116.59 24.7299 116.59 24.1759V21.2093L133.897 25.3876C134.357 25.4925 134.771 25.7157 135.086 26.0284C135.4 26.3411 135.6 26.7291 135.661 27.1424V34.6215ZM99.9021 38.7997H66.527C65.8947 38.7997 65.2883 39.0198 64.8413 39.4116C64.3942 39.8034 64.143 40.3348 64.143 40.8888C64.143 41.4429 64.3942 41.9743 64.8413 42.3661C65.2883 42.7578 65.8947 42.9779 66.527 42.9779H99.9021C100.534 42.9779 101.141 42.7578 101.588 42.3661C102.035 41.9743 102.286 41.4429 102.286 40.8888C102.286 40.3348 102.035 39.8034 101.588 39.4116C101.141 39.0198 100.534 38.7997 99.9021 38.7997Z" fill="black"/>
<g filter="url(#filter0_d_11_5)">
<path d="M34.272 72.704C34.272 73.0453 33.8773 73.216 33.088 73.216C32.96 73.216 32.7467 73.088 32.448 72.832L31.36 71.808L29.888 70.528C29.376 70.0587 28.8427 69.6213 28.288 69.216C26.752 68.3413 25.7067 67.872 25.152 67.808C23.2747 67.808 21.9947 68.288 21.312 69.248C21.056 69.6107 20.928 70.016 20.928 70.464C20.928 70.8907 21.0453 71.296 21.28 71.68C21.5147 72.0427 21.92 72.4373 22.496 72.864C23.7333 73.7813 25.7493 74.72 28.544 75.68C28.5867 75.6373 28.672 75.52 28.8 75.328L29.216 74.752C29.6 74.24 29.8667 73.984 30.016 73.984C30.1653 73.984 30.2827 74.048 30.368 74.176C30.4747 74.2827 30.528 74.3893 30.528 74.496C30.528 74.6027 30.496 74.72 30.432 74.848C30.3893 74.976 30.3253 75.1147 30.24 75.264C30.0053 75.6693 29.8773 75.9253 29.856 76.032C31.4133 77.12 32.4693 78.0693 33.024 78.88C33.6853 79.84 34.016 81.056 34.016 82.528C34.016 84.384 33.248 85.9627 31.712 87.264C30.1333 88.608 28.1387 89.28 25.728 89.28C24.5333 89.28 23.3493 89.0773 22.176 88.672C21.024 88.288 20.0853 87.6267 19.36 86.688L19.296 86.656C19.2533 86.656 19.1893 86.688 19.104 86.752C19.0187 86.7947 18.976 86.8373 18.976 86.88L18.528 89.056C18.5067 89.2053 18.3787 89.28 18.144 89.28C17.9307 89.28 17.7813 89.248 17.696 89.184C17.632 89.1413 17.5467 89.0347 17.44 88.864L17.408 87.584C17.408 86.56 17.4933 85.0667 17.664 83.104C17.7707 82.8053 18.0053 82.656 18.368 82.656C18.7307 82.656 19.04 82.8267 19.296 83.168C19.552 83.488 19.7973 83.872 20.032 84.32L20.736 85.664C20.9707 86.112 21.248 86.4533 21.568 86.688C21.76 86.88 22.1867 87.104 22.848 87.36C24.256 87.936 25.4293 88.224 26.368 88.224C27.4987 88.224 28.416 87.8507 29.12 87.104C29.7813 86.4 30.112 85.4933 30.112 84.384C30.112 83.68 29.5253 82.88 28.352 81.984C27.2213 81.1307 26.24 80.704 25.408 80.704C25.2587 80.704 25.0453 80.7893 24.768 80.96C24.2773 81.28 23.968 81.44 23.84 81.44C23.8613 81.3333 23.872 81.2373 23.872 81.152V80.928C23.872 80.6293 23.8293 80.3947 23.744 80.224C21.3547 79.008 19.8293 77.9733 19.168 77.12C18.784 76.608 18.5387 76.064 18.432 75.488C18.3253 74.912 18.272 74.2613 18.272 73.536C18.272 71.6373 18.6347 70.0693 19.36 68.832C19.872 67.9573 20.5867 67.3387 21.504 66.976C22.4427 66.592 23.3173 66.4 24.128 66.4C24.96 66.4 25.632 66.4533 26.144 66.56C26.656 66.6667 27.1467 66.816 27.616 67.008C28.2773 67.2853 29.248 67.8293 30.528 68.64H30.784L32.48 66.624L32.864 66.592C33.3973 66.592 33.7067 66.7413 33.792 67.04C34.112 69.728 34.272 71.616 34.272 72.704ZM52.2278 88.064C50.7558 88.64 49.2091 88.928 47.5878 88.928C45.9878 88.928 44.5691 88.6507 43.3318 88.096C42.0944 87.5413 41.0064 86.816 40.0677 85.92C39.1504 85.0027 38.4251 83.9573 37.8918 82.784C37.3798 81.6107 37.1238 80.4907 37.1238 79.424C37.1238 78.336 37.2091 77.2907 37.3798 76.288C37.5504 75.264 37.8064 74.2613 38.1478 73.28C39.3851 69.7813 41.4331 67.4773 44.2917 66.368C45.4011 65.9413 46.6171 65.728 47.9398 65.728C52.0784 65.728 55.1398 66.9013 57.1238 69.248C58.7024 71.1253 59.4918 73.504 59.4918 76.384C59.4704 80.2453 58.3291 83.3067 56.0678 85.568C55.0011 86.6347 53.7211 87.4667 52.2278 88.064ZM43.6198 76.608C43.5558 77.4187 43.5238 78.1653 43.5238 78.848C43.5238 79.5093 43.6091 80.2133 43.7798 80.96C43.9504 81.728 44.1638 82.496 44.4198 83.264C44.9531 84.7787 45.6891 86.2187 46.6278 87.584C46.6918 87.776 46.9904 87.872 47.5238 87.872C47.8651 87.872 48.3024 87.8293 48.8358 87.744C50.4144 87.5093 51.3744 86.8053 51.7158 85.632C51.9504 84.736 52.1744 83.9787 52.3878 83.36C52.6224 82.72 52.8251 82.1227 52.9958 81.568C53.3798 80.3307 53.5718 79.264 53.5718 78.368C53.5718 77.4507 53.5398 76.64 53.4757 75.936C53.4118 75.232 53.3051 74.496 53.1558 73.728C53.0064 72.9387 52.8038 72.1493 52.5478 71.36C52.3344 70.592 52.0358 69.888 51.6518 69.248C50.8198 67.84 49.8064 67.1253 48.6118 67.104C47.3744 67.1253 46.3291 67.8613 45.4758 69.312C44.4944 70.976 43.8758 73.408 43.6198 76.608ZM51.2358 61.952L51.3638 61.92C51.5771 61.92 51.7691 61.984 51.9398 62.112C52.1104 62.24 52.1958 62.368 52.1958 62.496C52.1958 62.624 52.1851 62.688 52.1638 62.688C52.1638 62.688 52.1638 62.6987 52.1638 62.72V62.752L46.1478 64.672C46.1051 64.6933 46.0624 64.704 46.0198 64.704H45.7958C45.5611 64.704 45.3904 64.672 45.2838 64.608C45.1771 64.544 45.1238 64.384 45.1238 64.128V63.968C45.1238 63.9253 45.1344 63.8933 45.1558 63.872L51.1718 61.952H51.2358ZM78.996 87.808L80.564 87.84C82.484 87.84 84.0093 87.52 85.14 86.88C86.1427 86.304 86.7187 85.696 86.868 85.056C87.0387 84.352 87.22 83.8933 87.412 83.68C87.604 83.4667 87.796 83.36 87.988 83.36C88.18 83.36 88.3507 83.424 88.5 83.552C88.6707 83.6587 88.756 83.872 88.756 84.192C88.756 84.4907 88.6707 84.8747 88.5 85.344C88.3293 85.792 88.0947 86.2293 87.796 86.656C87.1773 87.552 86.452 88.192 85.62 88.576C84.1693 89.2587 82.4627 89.6 80.5 89.6C78.0253 89.6 75.9987 88.9173 74.42 87.552C72.3507 85.7387 71.188 82.7627 70.932 78.624H69.332C69.1613 78.624 69.076 78.496 69.076 78.24C69.076 77.984 69.1293 77.792 69.236 77.664C69.3427 77.536 69.4707 77.44 69.62 77.376C69.7693 77.2907 69.9293 77.2267 70.1 77.184C70.292 77.1413 70.4627 77.0987 70.612 77.056C70.7613 75.0507 71.156 73.2373 71.796 71.616C72.308 70.3147 72.8093 69.4507 73.3 69.024C73.812 68.576 74.4307 68.1813 75.156 67.84C75.86 67.4773 76.596 67.1787 77.364 66.944C78.8147 66.496 80.2227 66.272 81.588 66.272L85.204 67.104C85.332 66.8693 85.524 66.6773 85.78 66.528C86.0573 66.3787 86.3773 66.304 86.74 66.304C87.316 66.304 87.604 66.8053 87.604 67.808L86.612 72.096C86.612 72.1387 86.4307 72.2027 86.068 72.288C85.6413 72.288 85.3533 72.1493 85.204 71.872C84.372 69.5253 83.252 68.224 81.844 67.968C81.4813 67.904 81.1613 67.872 80.884 67.872C79.5613 67.872 78.9 68.3627 78.9 69.344C78.9 69.472 78.9107 69.5787 78.932 69.664L78.964 69.568V70.144V73.472C78.964 78.1653 78.9 81.4933 78.772 83.456C78.644 85.3973 78.58 86.6133 78.58 87.104C78.58 87.5733 78.7187 87.808 78.996 87.808ZM99.97 78.016C99.97 76.3307 99.2233 75.488 97.73 75.488C97.09 75.488 96.642 75.7333 96.386 76.224C96.258 76.5013 96.1833 76.8107 96.162 77.152C96.162 77.472 96.2047 77.6747 96.29 77.76C96.3967 77.8453 96.45 77.9947 96.45 78.208C96.45 78.592 96.226 78.848 95.778 78.976C95.5007 79.0613 95.0953 79.104 94.562 79.104C94.178 79.104 93.698 79.2 93.122 79.392C92.546 79.584 92.2153 79.68 92.13 79.68C91.938 79.68 91.7887 79.5627 91.682 79.328C91.5967 79.0933 91.554 78.8693 91.554 78.656C91.554 78.272 91.7993 77.6747 92.29 76.864C92.802 76.032 93.2393 75.4773 93.602 75.2C94.2633 74.7093 94.8713 74.3147 95.426 74.016C95.9807 73.696 96.5567 73.536 97.154 73.536C100.226 73.536 102.21 74.3573 103.106 76C103.618 76.9387 103.874 78.0693 103.874 79.392C103.874 79.968 103.799 80.5547 103.65 81.152C103.501 81.7493 103.426 82.3253 103.426 82.88C103.426 83.776 103.607 84.608 103.97 85.376C104.439 86.0373 104.845 86.4213 105.186 86.528C105.314 86.528 105.431 86.4853 105.538 86.4C105.666 86.3147 105.783 86.272 105.89 86.272C106.338 86.272 106.562 86.496 106.562 86.944C106.562 87.3707 106.37 87.744 105.986 88.064C105.218 88.704 104.482 89.024 103.778 89.024C103.074 89.024 102.573 88.9813 102.274 88.896C101.975 88.8107 101.709 88.6933 101.474 88.544C101.239 88.3947 101.037 88.2347 100.866 88.064L100.354 87.584L99.874 87.104C99.746 86.9547 99.6713 86.88 99.65 86.88C98.1993 88.6293 96.3647 89.504 94.146 89.504C92.8873 89.504 91.8527 89.0667 91.042 88.192C90.2527 87.3173 89.858 86.496 89.858 85.728C89.858 84.2773 90.5833 83.104 92.034 82.208C93.5273 81.312 95.7887 80.6507 98.818 80.224C99.1167 80.2027 99.3513 80.128 99.522 80C99.8207 79.7867 99.97 79.1253 99.97 78.016ZM95.522 83.104C95.2873 83.488 95.17 83.8507 95.17 84.192C95.17 85.0027 95.2447 85.7493 95.394 86.432C95.5433 87.1147 95.7993 87.4773 96.162 87.52C96.6953 87.52 97.154 87.3707 97.538 87.072C98.2207 86.5387 98.5833 86.0053 98.626 85.472L99.01 81.472C97.346 81.472 96.1833 82.016 95.522 83.104ZM115.076 88.256L109.156 88.48C108.665 88.48 108.249 88.416 107.908 88.288C107.588 88.16 107.428 87.8187 107.428 87.264C107.449 87.008 107.737 86.848 108.292 86.784C108.911 86.72 109.284 86.624 109.412 86.496C109.881 85.984 110.116 84.576 110.116 82.272C110.116 80.672 110.073 79.488 109.988 78.72C109.903 77.952 109.849 77.536 109.828 77.472C109.743 77.1307 109.551 76.928 109.252 76.864C108.975 76.7787 108.676 76.7147 108.356 76.672C108.036 76.6293 107.748 76.5547 107.492 76.448C107.257 76.32 107.14 76.1067 107.14 75.808C107.14 75.488 107.215 75.3067 107.364 75.264C107.791 75.2427 108.505 75.1573 109.508 75.008L111.876 74.688C112.431 74.6453 112.943 74.5813 113.412 74.496C114.393 74.3253 114.937 74.24 115.044 74.24C115.535 74.24 115.78 74.5707 115.78 75.232C115.78 76.192 115.663 77.0027 115.428 77.664C115.705 77.4293 115.993 77.088 116.292 76.64C116.591 76.192 116.911 75.744 117.252 75.296C118.105 74.1867 118.831 73.632 119.428 73.632C120.025 73.632 120.548 73.76 120.996 74.016C121.444 74.272 121.828 74.6027 122.148 75.008C122.831 75.8827 123.172 76.832 123.172 77.856C123.151 79.2853 122.628 80.2987 121.604 80.896C121.22 81.1093 120.783 81.216 120.292 81.216C119.823 81.216 119.46 81.0667 119.204 80.768C118.948 80.4693 118.735 80.1067 118.564 79.68C118.415 79.2533 118.276 78.8053 118.148 78.336C118.02 77.8453 117.881 77.408 117.732 77.024C116.004 78.6453 115.055 80.448 114.884 82.432C114.841 83.008 114.809 83.584 114.788 84.16L114.82 86.24C114.82 86.5173 114.905 86.6987 115.076 86.784C115.247 86.8693 115.439 86.944 115.652 87.008C115.865 87.0507 116.057 87.1147 116.228 87.2C116.399 87.264 116.484 87.424 116.484 87.68C116.484 87.936 116.356 88.1387 116.1 88.288L115.076 88.256Z" fill="#C50F0F"/>
</g>
<defs>
<filter id="filter0_d_11_5" x="13.408" y="61.92" width="113.764" height="35.68" filterUnits="userSpaceOnUse" color-interpolation-filters="sRGB">
<feFlood flood-opacity="0" result="BackgroundImageFix"/>
<feColorMatrix in="SourceAlpha" type="matrix" values="0 0 0 0 0 0 0 0 0 0 0 0 0 0 0 0 0 0 127 0" result="hardAlpha"/>
<feOffset dy="4"/>
<feGaussianBlur stdDeviation="2"/>
<feComposite in2="hardAlpha" operator="out"/>
<feColorMatrix type="matrix" values="0 0 0 0 0 0 0 0 0 0 0 0 0 0 0 0 0 0 0.25 0"/>
<feBlend mode="normal" in2="BackgroundImageFix" result="effect1_dropShadow_11_5"/>
<feBlend mode="normal" in="SourceGraphic" in2="effect1_dropShadow_11_5" result="shape"/>
</filter>
</defs>
</svg>
