<svg width="73" height="67" viewBox="0 0 73 67" fill="none" xmlns="http://www.w3.org/2000/svg">
<path d="M70.7275 15.6144C70.298 15.2674 69.8685 15.2674 69.0096 15.2674C67.7212 15.2674 66.8623 15.2674 65.5739 14.9204C58.2731 13.5325 53.1196 9.02166 52.6901 3.12288V1.73493C52.6901 0.693974 51.8312 0 50.5428 0H37.2296C35.9412 0 35.0823 0.693974 35.0823 1.73493V45.1083C35.0823 49.2722 30.7876 52.395 26.0636 52.395C23.0574 52.395 20.4806 51.3541 18.7628 49.6191C15.7565 46.4963 16.6155 41.6384 20.4806 39.2095C22.1984 38.1686 23.9163 38.1686 27.352 38.1686C27.7814 38.1686 28.6403 38.1686 29.0698 37.8216C29.4993 37.4746 29.9287 37.1276 29.9287 36.4336V24.9831C29.9287 24.2891 29.0698 23.2481 28.2109 23.2481C21.3395 22.5542 14.4682 23.9421 9.31463 27.412C4.59056 30.8818 1.15488 35.7397 0.295961 41.6384C-0.99242 48.2312 2.0138 55.1709 7.59679 59.6818C12.7503 64.1926 20.0511 66.2745 26.9225 66.2745C33.7939 66.2745 40.6652 64.1926 45.8188 60.0287C50.9723 55.8649 53.9785 50.3131 53.9785 44.4143V25.33C59.132 27.412 64.715 28.7999 70.298 28.7999C71.5864 28.7999 72.4453 28.1059 72.4453 27.065V16.6554C71.5864 16.3084 71.1569 15.9614 70.7275 15.6144Z" fill="black"/>
</svg>
