<svg width="96" height="96" viewBox="0 0 96 96" fill="none" xmlns="http://www.w3.org/2000/svg">
<g clip-path="url(#clip0_4_47)">
<path d="M76.2 19.64C68.72 12.12 58.76 8 48.16 8C26.32 8 8.52 25.8 8.52 47.64C8.52 54.64 10.36 61.44 13.8 67.44L8.2 88L29.2 82.48C35 85.64 41.52 87.32 48.16 87.32C70 87.32 87.8 69.52 87.8 47.68C87.8 37.08 83.68 27.12 76.2 19.64ZM48.16 80.6C42.24 80.6 36.44 79 31.36 76L30.16 75.28L17.68 78.56L21 66.4L20.2 65.16C16.92 59.92 15.16 53.84 15.16 47.64C15.16 29.48 29.96 14.68 48.12 14.68C56.92 14.68 65.2 18.12 71.4 24.36C77.64 30.6 81.04 38.88 81.04 47.68C81.12 65.84 66.32 80.6 48.16 80.6ZM66.24 55.96C65.24 55.48 60.36 53.08 59.48 52.72C58.56 52.4 57.92 52.24 57.24 53.2C56.56 54.2 54.68 56.44 54.12 57.08C53.56 57.76 52.96 57.84 51.96 57.32C50.96 56.84 47.76 55.76 44 52.4C41.04 49.76 39.08 46.52 38.48 45.52C37.92 44.52 38.4 44 38.92 43.48C39.36 43.04 39.92 42.32 40.4 41.76C40.88 41.2 41.08 40.76 41.4 40.12C41.72 39.44 41.56 38.88 41.32 38.4C41.08 37.92 39.08 33.04 38.28 31.04C37.48 29.12 36.64 29.36 36.04 29.32C35.44 29.32 34.8 29.32 34.12 29.32C33.44 29.32 32.4 29.56 31.48 30.56C30.6 31.56 28.04 33.96 28.04 38.84C28.04 43.72 31.6 48.44 32.08 49.08C32.56 49.76 39.08 59.76 49 64.04C51.36 65.08 53.2 65.68 54.64 66.12C57 66.88 59.16 66.76 60.88 66.52C62.8 66.24 66.76 64.12 67.56 61.8C68.4 59.48 68.4 57.52 68.12 57.08C67.84 56.64 67.24 56.44 66.24 55.96Z" fill="black"/>
</g>
<defs>
<clipPath id="clip0_4_47">
<rect width="96" height="96" fill="white"/>
</clipPath>
</defs>
</svg>
